<svg width="32" height="32" viewBox="0 0 32 32" fill="none" xmlns="http://www.w3.org/2000/svg">
<path fill-rule="evenodd" clip-rule="evenodd" d="M16.1181 5.33331C19.5959 5.33331 22.4999 7.98525 22.8147 11.4488L23.297 16.7535C23.3393 17.2191 23.6196 17.6298 24.0378 17.8389L24.0416 17.8408C24.9781 18.309 25.5696 19.2661 25.5696 20.3131V20.7257C25.5696 22.068 24.4815 23.1561 23.1392 23.1561H19.0886V23.6962C19.0886 25.3367 17.7587 26.6666 16.1181 26.6666C14.4776 26.6666 13.1477 25.3367 13.1477 23.6962V23.1561H9.09704C7.75477 23.1561 6.66666 22.068 6.66666 20.7257V20.3131C6.66666 19.2661 7.2582 18.309 8.19465 17.8408L8.19844 17.8389C8.61668 17.6298 8.89694 17.2191 8.93927 16.7535L9.42152 11.4488C9.73639 7.98525 12.6403 5.33331 16.1181 5.33331ZM14.7679 23.1561V23.6962C14.7679 24.4419 15.3724 25.0464 16.1181 25.0464C16.8638 25.0464 17.4683 24.4419 17.4683 23.6962V23.1561H14.7679ZM16.1181 6.95345C13.4783 6.95345 11.2741 8.96638 11.0351 11.5953L10.5528 16.9C10.4597 17.9245 9.84312 18.8279 8.92301 19.288C8.53168 19.4836 8.28688 19.8797 8.28688 20.313V20.7256C8.28688 21.173 8.64958 21.5357 9.097 21.5357H23.1392C23.5866 21.5357 23.9493 21.173 23.9493 20.7256V20.313C23.9493 19.8797 23.7045 19.4836 23.317 19.2899C22.3931 18.8279 21.7765 17.9245 21.6834 16.9L21.2011 11.5953C20.9621 8.96638 18.7579 6.95345 16.1181 6.95345Z" fill="#3D3D3D"/>
</svg>
