<svg width="22" height="16" viewBox="0 0 22 16" fill="none" xmlns="http://www.w3.org/2000/svg">
<path fill-rule="evenodd" clip-rule="evenodd" d="M0.333313 1C0.333313 0.447716 0.781028 0 1.33331 0H20.6666C21.2189 0 21.6666 0.447715 21.6666 1V1.66667C21.6666 2.21895 21.2189 2.66667 20.6666 2.66667H1.33331C0.781029 2.66667 0.333313 2.21895 0.333313 1.66667V1ZM0.333313 7.66667C0.333313 7.11438 0.781028 6.66667 1.33331 6.66667H20.6666C21.2189 6.66667 21.6666 7.11438 21.6666 7.66667V8.33333C21.6666 8.88562 21.2189 9.33333 20.6666 9.33333H1.33331C0.781029 9.33333 0.333313 8.88562 0.333313 8.33333V7.66667ZM1.33331 13.3333C0.781028 13.3333 0.333313 13.781 0.333313 14.3333V15C0.333313 15.5523 0.781029 16 1.33331 16H20.6666C21.2189 16 21.6666 15.5523 21.6666 15V14.3333C21.6666 13.781 21.2189 13.3333 20.6666 13.3333H1.33331Z" fill="#3D3D3D"/>
</svg>
