<svg width="22" height="22" viewBox="0 0 22 22" fill="none" xmlns="http://www.w3.org/2000/svg">
<path fill-rule="evenodd" clip-rule="evenodd" d="M13.3063 17.054C17.9236 17.054 21.6667 13.311 21.6667 8.69367C21.6667 4.07637 17.9236 0.333313 13.3063 0.333313C8.68899 0.333313 4.94593 4.07637 4.94593 8.69367C4.94593 10.6908 5.64622 12.5245 6.81466 13.9623L0.586626 20.1904C0.248875 20.5281 0.248875 21.0757 0.586626 21.4135C0.924377 21.7512 1.47198 21.7512 1.80973 21.4135L8.03777 15.1854C9.47564 16.3538 11.3092 17.054 13.3063 17.054ZM13.3063 15.3242C9.6443 15.3242 6.67566 12.3555 6.67566 8.69353C6.67566 5.03154 9.6443 2.0629 13.3063 2.0629C16.9683 2.0629 19.9369 5.03154 19.9369 8.69353C19.9369 12.3555 16.9683 15.3242 13.3063 15.3242Z" fill="#3D3D3D"/>
</svg>
