<svg width="96" height="96" viewBox="0 0 96 96" fill="none" xmlns="http://www.w3.org/2000/svg">
<path d="M67.9009 48C67.9009 61.2042 65.6252 73.1347 61.9654 81.7455C60.1351 86.0519 57.9686 89.5047 55.5882 91.8735C53.2099 94.2403 50.6462 95.5 48 95.5C45.3538 95.5 42.79 94.2403 40.4117 91.8735C38.0314 89.5047 35.8648 86.0519 34.0346 81.7455C30.3748 73.1347 28.0991 61.2042 28.0991 48C28.0991 34.7958 30.3748 22.8653 34.0346 14.2545C35.8648 9.9481 38.0314 6.49531 40.4117 4.12649C42.79 1.75969 45.3538 0.5 48 0.5C50.6462 0.5 53.2099 1.75969 55.5882 4.12649C57.9686 6.49531 60.1351 9.9481 61.9654 14.2545C65.6252 22.8653 67.9009 34.7958 67.9009 48Z" stroke="#000577"/>
<path d="M48.5516 57.3374C53.4452 57.3374 57.4123 53.3703 57.4123 48.4767C57.4123 43.5831 53.4452 39.616 48.5516 39.616C43.658 39.616 39.6909 43.5831 39.6909 48.4767C39.6909 53.3703 43.658 57.3374 48.5516 57.3374Z" stroke="#000577"/>
<path d="M48 67.9012C34.7958 67.9012 22.8653 65.6255 14.2545 61.9657C9.9481 60.1354 6.49531 57.9689 4.12649 55.5885C1.75969 53.2102 0.499999 50.6465 0.499999 48.0003C0.499999 45.3541 1.75969 42.7903 4.12649 40.412C6.49531 38.0317 9.9481 35.8651 14.2545 34.0349C22.8653 30.3751 34.7958 28.0994 48 28.0994C61.2042 28.0994 73.1347 30.3751 81.7455 34.0349C86.0519 35.8651 89.5047 38.0317 91.8735 40.4121C94.2403 42.7903 95.5 45.3541 95.5 48.0003C95.5 50.6465 94.2403 53.2102 91.8735 55.5885C89.5047 57.9689 86.0519 60.1354 81.7455 61.9657C73.1347 65.6255 61.2042 67.9012 48 67.9012Z" stroke="#000577"/>
<path d="M62.1184 62.0435C52.72 71.4419 42.6169 78.3227 33.8966 81.8606C29.5354 83.63 25.5436 84.5538 22.1721 84.5546C18.8033 84.5554 16.092 83.6368 14.2192 81.7639C12.3463 79.891 11.4277 77.1798 11.4285 73.811C11.4293 70.4394 12.353 66.4477 14.1224 62.0865C17.6604 53.3661 24.5412 43.263 33.9395 33.8647C43.3379 24.4663 53.441 17.5855 62.1614 14.0475C66.5225 12.2781 70.5143 11.3544 73.8859 11.3536C77.2547 11.3528 79.9659 12.2714 81.8388 14.1443C83.7117 16.0171 84.6303 18.7284 84.6295 22.0972C84.6287 25.4687 83.7049 29.4605 81.9355 33.8217C78.3976 42.542 71.5168 52.6451 62.1184 62.0435Z" stroke="#000577"/>
<path d="M33.9395 62.0435C43.3378 71.4419 53.4409 78.3227 62.1613 81.8606C66.5225 83.63 70.5142 84.5538 73.8858 84.5546C77.2546 84.5554 79.9658 83.6368 81.8387 81.7639C83.7116 79.891 84.6302 77.1798 84.6294 73.811C84.6286 70.4394 83.7048 66.4477 81.9355 62.0865C78.3975 53.3661 71.5167 43.263 62.1183 33.8647C52.7199 24.4663 42.6168 17.5855 33.8965 14.0475C29.5353 12.2781 25.5435 11.3544 22.172 11.3536C18.8032 11.3528 16.0919 12.2714 14.2191 14.1443C12.3462 16.0171 11.4276 18.7284 11.4284 22.0972C11.4292 25.4687 12.3529 29.4605 14.1223 33.8217C17.6603 42.542 24.5411 52.6451 33.9395 62.0435Z" stroke="#000577"/>
<path d="M54.822 48.4765C54.822 51.9396 52.0146 54.747 48.5515 54.747C45.0884 54.747 42.281 51.9396 42.281 48.4765C42.281 45.0134 45.0884 42.206 48.5515 42.206C52.0146 42.206 54.822 45.0134 54.822 48.4765Z" fill="#FF7171"/>
<path d="M22 64C22 65.6569 20.6569 67 19 67C17.3431 67 16 65.6569 16 64C16 62.3431 17.3431 61 19 61C20.6569 61 22 62.3431 22 64Z" fill="#FF7171"/>
<path d="M45 18C45 19.6569 43.6569 21 42 21C40.3431 21 39 19.6569 39 18C39 16.3431 40.3431 15 42 15C43.6569 15 45 16.3431 45 18Z" fill="#FF7171"/>
<path d="M61 89C61 90.6569 59.6569 92 58 92C56.3431 92 55 90.6569 55 89C55 87.3431 56.3431 86 58 86C59.6569 86 61 87.3431 61 89Z" fill="#FF7171"/>
<path d="M81 42C81 43.6569 79.6569 45 78 45C76.3431 45 75 43.6569 75 42C75 40.3431 76.3431 39 78 39C79.6569 39 81 40.3431 81 42Z" fill="#FF7171"/>
</svg>
